<svg xmlns="http://www.w3.org/2000/svg" xmlns:xlink="http://www.w3.org/1999/xlink" width="500" zoomAndPan="magnify" viewBox="0 0 375 374.999991" height="500" preserveAspectRatio="xMidYMid meet" version="1.0"><defs><clipPath id="2135e6d176"><path d="M 120.082031 37.5 L 183.210938 37.5 L 183.210938 71.238281 L 120.082031 71.238281 Z M 120.082031 37.5 " clip-rule="nonzero"/></clipPath><clipPath id="f4f1eac36b"><path d="M 136.953125 37.5 L 166.339844 37.5 C 175.65625 37.5 183.210938 45.050781 183.210938 54.367188 C 183.210938 63.6875 175.65625 71.238281 166.339844 71.238281 L 136.953125 71.238281 C 127.636719 71.238281 120.082031 63.6875 120.082031 54.367188 C 120.082031 45.050781 127.636719 37.5 136.953125 37.5 Z M 136.953125 37.5 " clip-rule="nonzero"/></clipPath><clipPath id="cef51f4acf"><path d="M 0.0820312 0.5 L 63.210938 0.5 L 63.210938 34.238281 L 0.0820312 34.238281 Z M 0.0820312 0.5 " clip-rule="nonzero"/></clipPath><clipPath id="776fc6010b"><path d="M 16.953125 0.5 L 46.339844 0.5 C 55.65625 0.5 63.210938 8.050781 63.210938 17.367188 C 63.210938 26.6875 55.65625 34.238281 46.339844 34.238281 L 16.953125 34.238281 C 7.636719 34.238281 0.0820312 26.6875 0.0820312 17.367188 C 0.0820312 8.050781 7.636719 0.5 16.953125 0.5 Z M 16.953125 0.5 " clip-rule="nonzero"/></clipPath><clipPath id="d040c60aad"><rect x="0" width="64" y="0" height="35"/></clipPath></defs><path fill="#000000" d="M 187.515625 0 C 83.953125 0 0 83.953125 0 187.515625 C 0 291.078125 83.953125 375.03125 187.515625 375.03125 C 291.078125 375.03125 375.03125 291.078125 375.03125 187.515625 C 375.03125 83.953125 291.078125 0 187.515625 0 Z M 255.820312 207.324219 L 255.820312 260.910156 C 255.820312 276.535156 243.152344 289.207031 227.519531 289.207031 L 114.324219 289.207031 C 98.695312 289.207031 86.023438 276.542969 86.023438 260.910156 L 86.023438 147.71875 C 86.023438 132.09375 98.691406 119.421875 114.324219 119.421875 L 175.746094 119.421875 C 182.457031 119.421875 188.054688 124.179688 189.347656 130.511719 L 189.628906 133.304688 L 189.347656 136.101562 C 188.054688 142.429688 182.457031 147.191406 175.746094 147.191406 L 125.023438 147.191406 C 118.820312 147.191406 113.792969 152.21875 113.792969 158.421875 L 113.792969 250.207031 C 113.792969 256.410156 118.820312 261.4375 125.023438 261.4375 L 216.808594 261.4375 C 223.011719 261.4375 228.042969 256.410156 228.042969 250.207031 L 228.042969 198.859375 C 228.042969 192.148438 232.800781 186.550781 239.132812 185.257812 L 241.925781 184.972656 L 244.722656 185.257812 C 251.050781 186.550781 255.8125 192.148438 255.8125 198.859375 L 255.8125 207.324219 Z M 289 165.609375 C 289 173.277344 282.78125 179.496094 275.113281 179.496094 C 267.445312 179.496094 261.230469 173.277344 261.230469 165.609375 L 261.230469 132.167969 L 174.183594 222.242188 C 168.855469 227.757812 160.066406 227.90625 154.550781 222.578125 C 149.035156 217.25 148.886719 208.460938 154.214844 202.945312 L 240.558594 113.597656 L 209.203125 113.597656 C 202.492188 113.597656 196.894531 108.839844 195.601562 102.515625 L 195.316406 99.722656 L 195.601562 96.925781 C 196.894531 90.597656 202.492188 85.835938 209.203125 85.835938 L 275.105469 85.835938 L 277.902344 86.121094 C 280.613281 86.671875 283.035156 88.019531 284.917969 89.902344 C 287.429688 92.414062 288.984375 95.886719 288.984375 99.722656 L 288.984375 165.625 Z M 289 165.609375 " fill-opacity="1" fill-rule="nonzero"/><g clip-path="url(#2135e6d176)"><g clip-path="url(#f4f1eac36b)"><g transform="matrix(1, 0, 0, 1, 120, 37)"><g clip-path="url(#d040c60aad)"><g clip-path="url(#cef51f4acf)"><g clip-path="url(#776fc6010b)"><path fill="#000000" d="M 0.0820312 0.5 L 63.210938 0.5 L 63.210938 34.238281 L 0.0820312 34.238281 Z M 0.0820312 0.5 " fill-opacity="1" fill-rule="nonzero"/></g></g></g></g></g></g></svg>